<svg width="30" height="30" viewBox="0 0 30 30" fill="none" xmlns="http://www.w3.org/2000/svg">
<path d="M3.50962 8.36602L15 1.73205L26.4904 8.36602V21.634L15 28.268L3.50962 21.634V8.36602Z" fill="white" stroke="#40C87F" stroke-width="3"/>
<path d="M11.8277 19V18.244L14.8517 15.196C15.7157 14.332 16.1477 13.592 16.1477 12.976C16.1477 12.44 15.9797 12.024 15.6437 11.728C15.3157 11.424 14.9197 11.272 14.4557 11.272C13.5917 11.272 12.9637 11.668 12.5717 12.46L11.8637 12.04C12.1277 11.52 12.4877 11.128 12.9437 10.864C13.3997 10.592 13.9037 10.456 14.4557 10.456C15.1277 10.456 15.7157 10.684 16.2197 11.14C16.7317 11.588 16.9877 12.2 16.9877 12.976C16.9877 13.464 16.8517 13.932 16.5797 14.38C16.3077 14.828 15.9237 15.3 15.4277 15.796L13.0277 18.184H17.1677V19H11.8277Z" fill="#B7B7C8"/>
</svg>
