<svg width="30" height="30" viewBox="0 0 30 30" fill="none" xmlns="http://www.w3.org/2000/svg">
<path d="M3.50962 8.36602L15 1.73205L26.4904 8.36602V21.634L15 28.268L3.50962 21.634V8.36602Z" fill="white" stroke="#40C87F" stroke-width="3"/>
<path d="M15.8824 14.092C16.5544 14.18 17.1064 14.44 17.5384 14.872C17.9784 15.296 18.1984 15.86 18.1984 16.564C18.1984 17.364 17.9224 17.996 17.3704 18.46C16.8264 18.916 16.1624 19.144 15.3784 19.144C14.7544 19.144 14.1984 19 13.7104 18.712C13.2224 18.424 12.8784 18.012 12.6784 17.476L13.3744 17.068C13.5104 17.484 13.7544 17.8 14.1064 18.016C14.4584 18.224 14.8824 18.328 15.3784 18.328C15.9544 18.328 16.4264 18.176 16.7944 17.872C17.1704 17.56 17.3584 17.124 17.3584 16.564C17.3584 16.004 17.1704 15.572 16.7944 15.268C16.4264 14.956 15.9544 14.8 15.3784 14.8V14.788L15.3664 14.8H15.1384L14.7784 14.248L16.8664 11.392H12.9184V10.6H17.8384V11.392L15.8824 14.092Z" fill="#B7B7C8"/>
</svg>
