<svg width="30" height="30" viewBox="0 0 30 30" fill="none" xmlns="http://www.w3.org/2000/svg">
<path d="M3.50962 8.36602L15 1.73205L26.4904 8.36602V21.634L15 28.268L3.50962 21.634V8.36602Z" fill="white" stroke="#40C87F" stroke-width="3"/>
<path d="M14.4398 13.984C15.2238 13.984 15.8878 14.216 16.4318 14.68C16.9838 15.136 17.2598 15.764 17.2598 16.564C17.2598 17.364 16.9838 17.996 16.4318 18.46C15.8878 18.916 15.2238 19.144 14.4398 19.144C13.8078 19.144 13.2438 18.992 12.7478 18.688C12.2518 18.376 11.9158 17.932 11.7398 17.356L12.4478 16.948C12.5678 17.396 12.8038 17.74 13.1558 17.98C13.5158 18.212 13.9438 18.328 14.4398 18.328C15.0158 18.328 15.4878 18.176 15.8558 17.872C16.2318 17.56 16.4198 17.124 16.4198 16.564C16.4198 16.004 16.2318 15.572 15.8558 15.268C15.4878 14.956 15.0158 14.8 14.4398 14.8H12.1598L12.4598 10.6H16.9598V11.392H13.2038L13.0238 13.984H14.4398Z" fill="#B7B7C8"/>
</svg>
