<svg width="30" height="30" viewBox="0 0 30 30" fill="none" xmlns="http://www.w3.org/2000/svg">
<path d="M3.50962 8.36602L15 1.73205L26.4904 8.36602V21.634L15 28.268L3.50962 21.634V8.36602Z" fill="white" stroke="#40C87F" stroke-width="3"/>
<path d="M14.4984 13.6C15.3224 13.6 15.9984 13.86 16.5264 14.38C17.0544 14.892 17.3184 15.556 17.3184 16.372C17.3184 17.188 17.0544 17.856 16.5264 18.376C15.9984 18.888 15.3224 19.144 14.4984 19.144C13.6744 19.144 12.9984 18.888 12.4704 18.376C11.9424 17.856 11.6784 17.188 11.6784 16.372C11.6784 15.74 11.8504 15.18 12.1944 14.692L14.9424 10.6H15.8904L13.8264 13.672C14.0424 13.624 14.2664 13.6 14.4984 13.6ZM13.0584 17.788C13.4264 18.148 13.9064 18.328 14.4984 18.328C15.0904 18.328 15.5664 18.148 15.9264 17.788C16.2944 17.428 16.4784 16.956 16.4784 16.372C16.4784 15.788 16.2944 15.316 15.9264 14.956C15.5664 14.596 15.0904 14.416 14.4984 14.416C13.9064 14.416 13.4264 14.596 13.0584 14.956C12.6984 15.316 12.5184 15.788 12.5184 16.372C12.5184 16.956 12.6984 17.428 13.0584 17.788Z" fill="#B7B7C8"/>
</svg>
