<svg width="133" height="150" viewBox="0 0 133 150" fill="none" xmlns="http://www.w3.org/2000/svg">
<g opacity="0.3">
<path d="M44 76.5951C49.8 68.4169 50.4 62.0339 50.4 35.5047L48.4 34.9062C44.2 50.2653 39.2 60.8371 27.6 67.8185C21.6 72.6057 22.8 73.6031 23 74.7999C29 77.9914 37.4 79.5871 44 76.5951Z" fill="white"/>
<path d="M102.8 91.3564C102.6 91.3564 102.6 91.3564 102.8 91.3564C102 86.9681 100.6 82.5798 98.2 77.7926C105 75.1995 115.2 73.4043 125.8 71.8085L126.6 71.609V65.0266H125.6C112 64.4282 99.8 64.6277 89 65.8245C85.8 62.633 82.2 59.4415 77.6 56.0505C64 42.2872 58 23.5372 53.2 5.38564L51.6 0L49.4 7.97872C43.4 29.9202 40.2 42.0878 25.6 56.25C6.2 72.4069 0 83.1782 0 100.532C0 127.66 23.2 150 51.6 150C57.2 150 62.8 149.003 67.8 147.407C72.4 148.205 77 148.803 82 148.803C82.4 148.803 82.8 148.803 83.2 148.803C96.4 148.803 108.2 146.011 117 140.824C127.2 134.84 133 126.662 133 118.883C133 97.3404 115.6 93.9495 102.8 91.3564ZM99.4 90.758C93.2 89.3617 89.6 88.1649 89.6 84.9734C89.6 82.5798 91.8 80.7846 95.2 78.9894C97.4 82.9787 98.6 86.9681 99.4 90.758ZM51.6 147.008C24.8 147.008 3 126.263 3 100.532C3 84.1755 9 74.0027 27.6 58.4441C42.4 44.2819 46 32.3138 51.6 11.5691C56.2 27.9255 62.6 45.4787 75.4 58.4441L75.6 58.6436C79.4 61.4362 82.4 64.0293 85.2 66.6223C66.8 69.2154 52.8 74.8005 43.4 83.3777C33.6 92.3537 31.4 102.726 31.2 109.707C30.4 118.285 33.2 126.463 39 132.846C44.4 138.83 52.4 143.418 61.8 146.011C58.6 146.609 55 147.008 51.6 147.008ZM80 141.822C77.8 142.021 75.8 142.221 73.6 142.221C89.6 135.638 102.2 118.285 102.6 97.7394C102.8 97.7394 103 97.9388 103.2 98.1383C111.2 102.527 116 109.109 116 116.29C116 129.056 99 139.628 80 141.822Z" fill="white"/>
</g>
</svg>
